PathFileType	4	(X/Y/Z)	trial_001.trc
DataRate	CameraRate	NumFrames	NumMarkers	Units	OrigDataRate	OrigDataStartFrame	OrigNumFrames
30.00	30.00	5	3	m	30.00	1	5
Frame#	Time	Hip_R			Knee_R			Ankle_R
		X1	Y1	Z1	X2	Y2	Z2	X3	Y3	Z3
1	0.000000	0.140	0.920	0.030	0.160	0.500	0.040	0.180	0.090	0.060
2	0.033333	0.142	0.921	0.031	0.163	0.503	0.041	0.184	0.092	0.061
3	0.066667	0.145	0.923	0.032	0.166	0.507	0.043	0.188	0.095	0.063
4	0.100000	0.149	0.925	0.033	0.170	0.512	0.044	0.193	0.099	0.065
5	0.133333	0.154	0.928	0.035	0.175	0.518	0.046	0.199	0.104	0.067
